<?xml version="1.0" encoding="UTF-8" standalone="no"?>
<svg
   width="32"
   height="32"
   viewBox="0 0 8.467 8.467"
   version="1.1"
   id="svg1"
   sodipodi:docname="appiconfg.svg"
   xml:space="preserve"
   inkscape:version="1.3.2 (091e20e, 2023-11-25)"
   xmlns:inkscape="http://www.inkscape.org/namespaces/inkscape"
   xmlns:sodipodi="http://sodipodi.sourceforge.net/DTD/sodipodi-0.dtd"
   xmlns="http://www.w3.org/2000/svg"
   xmlns:svg="http://www.w3.org/2000/svg"><defs
     id="defs1" /><sodipodi:namedview
     id="namedview1"
     pagecolor="#ffffff"
     bordercolor="#000000"
     borderopacity="0.25"
     inkscape:showpageshadow="2"
     inkscape:pageopacity="0.0"
     inkscape:pagecheckerboard="0"
     inkscape:deskcolor="#d1d1d1"
     inkscape:zoom="13.488813"
     inkscape:cx="22.870805"
     inkscape:cy="18.348539"
     inkscape:window-width="1440"
     inkscape:window-height="872"
     inkscape:window-x="0"
     inkscape:window-y="28"
     inkscape:window-maximized="0"
     inkscape:current-layer="svg1" /><g
     style="fill:none"
     id="g18"
     transform="matrix(0.30029511,0,0,0.30029511,0.62666242,0.5509213)"><path
       d="M 2,16.9 C 2,15.5906 2,14.9359 2.29472,14.455 2.45963,14.1859 2.68589,13.9596 2.955,13.7947 3.43594,13.5 4.09063,13.5 5.4,13.5 h 1.1 c 1.88562,0 2.82843,0 3.41421,0.5858 C 10.5,14.6716 10.5,15.6144 10.5,17.5 v 1.1 c 0,1.3094 0,1.9641 -0.2947,2.445 C 10.0404,21.3141 9.81411,21.5404 9.545,21.7053 9.06406,22 8.40937,22 7.1,22 5.13594,22 4.15391,22 3.4325,21.5579 3.02884,21.3106 2.68945,20.9712 2.44208,20.5675"
       stroke="#1c274c"
       stroke-width="1.5"
       stroke-linecap="round"
       id="path1" /><path
       d="m 22,7.1 c 0,1.30937 0,1.96406 -0.2947,2.445 -0.1649,0.26911 -0.3912,0.4954 -0.6603,0.6603 C 20.5641,10.5 19.9094,10.5 18.6,10.5 h -1.1 c -1.8856,0 -2.8284,0 -3.4142,-0.58579 C 13.5,9.32843 13.5,8.38562 13.5,6.5 V 5.4 c 0,-1.30937 0,-1.96406 0.2947,-2.445 C 13.9596,2.68589 14.1859,2.45963 14.455,2.29472 14.9359,2 15.5906,2 16.9,2 c 1.9641,0 2.9461,0 3.6675,0.44208 0.4037,0.24737 0.7431,0.58676 0.9904,0.99042"
       stroke="#1c274c"
       stroke-width="1.5"
       stroke-linecap="round"
       id="path2" /><path
       d="m 16.5,6.25 c 0,-0.51541 0,-0.77311 0.1291,-0.95507 C 16.6747,5.23072 16.7307,5.17466 16.7949,5.12911 16.9769,5 17.2346,5 17.75,5 c 0.5154,0 0.7731,0 0.9551,0.12911 0.0642,0.04555 0.1202,0.10161 0.1658,0.16582 C 19,5.47689 19,5.73459 19,6.25 19,6.76541 19,7.02311 18.8709,7.20507 18.8253,7.26928 18.7693,7.32534 18.7051,7.37089 18.5231,7.5 18.2654,7.5 17.75,7.5 17.2346,7.5 16.9769,7.5 16.7949,7.37089 16.7307,7.32534 16.6747,7.26928 16.6291,7.20507 16.5,7.02311 16.5,6.76541 16.5,6.25 Z"
       fill="#1c274c"
       id="path3" /><path
       d="m 12.75,22 c 0,0.4142 0.3358,0.75 0.75,0.75 0.4142,0 0.75,-0.3358 0.75,-0.75 z m 1.6389,-8.1629 0.4166,0.6236 v 0 z m -0.5518,0.5518 -0.6236,-0.4167 v 0 z M 19,12.75 h -2 v 1.5 h 2 z M 12.75,19 v 3 h 1.5 V 19 Z M 17,12.75 c -0.6866,0 -1.258,-9e-4 -1.719,0.046 -0.4735,0.0481 -0.9128,0.1529 -1.3088,0.4175 l 0.8333,1.2472 C 14.914,14.3882 15.078,14.3244 15.4328,14.2883 15.8002,14.2509 16.2822,14.25 17,14.25 Z M 14.25,17 c 0,-0.7178 9e-4,-1.1998 0.0383,-1.5672 0.0361,-0.3548 0.0999,-0.5188 0.1724,-0.6273 L 13.2135,13.9722 C 12.9489,14.3682 12.8441,14.8075 12.796,15.281 12.7491,15.742 12.75,16.3134 12.75,17 Z m -0.2778,-3.7865 c -0.3003,0.2006 -0.5581,0.4584 -0.7587,0.7587 l 1.2472,0.8333 c 0.0912,-0.1365 0.2083,-0.2536 0.3448,-0.3448 z"
       fill="#1c274c"
       id="path4" /><path
       d="m 22.75,13.5 c 0,-0.4142 -0.3358,-0.75 -0.75,-0.75 -0.4142,0 -0.75,0.3358 -0.75,0.75 z m -1.9846,8.3478 0.287,0.6929 v 0 z m 1.0824,-1.0824 -0.693,-0.287 v 0 z M 17,22.75 h 2 v -1.5 H 17 Z M 22.75,17 v -3.5 h -1.5 V 17 Z M 19,22.75 c 0.4557,0 0.835,4e-4 1.1454,-0.0208 0.3171,-0.0216 0.6166,-0.0682 0.907,-0.1885 l -0.574,-1.3859 c -0.0772,0.032 -0.1944,0.0615 -0.4351,0.0779 C 19.7958,21.2496 19.4762,21.25 19,21.25 Z M 21.25,19 c 0,0.4762 -4e-4,0.7958 -0.0173,1.0433 -0.0164,0.2407 -0.0459,0.3579 -0.0779,0.4351 l 1.3859,0.574 C 22.661,20.762 22.7076,20.4625 22.7292,20.1454 22.7504,19.835 22.75,19.4557 22.75,19 Z m -0.1976,3.5407 c 0.6738,-0.2791 1.2092,-0.8145 1.4883,-1.4883 l -1.3859,-0.574 c -0.1268,0.3062 -0.3702,0.5496 -0.6764,0.6765 z"
       fill="#1c274c"
       id="path5" /><path
       d="M 2,7.1 C 2,5.13594 2,4.15391 2.44208,3.4325 2.68945,3.02884 3.02884,2.68945 3.4325,2.44208 4.15391,2 5.13594,2 7.1,2 8.40937,2 9.06406,2 9.545,2.29472 9.81411,2.45963 10.0404,2.68589 10.2053,2.955 10.5,3.43594 10.5,4.09063 10.5,5.4 v 1.1 c 0,1.88562 0,2.82843 -0.58579,3.41421 C 9.32843,10.5 8.38562,10.5 6.5,10.5 H 5.4 c -1.30937,0 -1.96406,0 -2.445,-0.2947 C 2.68589,10.0404 2.45963,9.81411 2.29472,9.545 2,9.06406 2,8.40937 2,7.1 Z"
       stroke="#1c274c"
       stroke-width="1.5"
       id="path6" /><path
       d="M 5,6.25 C 5,5.73459 5,5.47689 5.12911,5.29493 5.17466,5.23072 5.23072,5.17466 5.29493,5.12911 5.47689,5 5.73459,5 6.25,5 6.76541,5 7.02311,5 7.20507,5.12911 7.26928,5.17466 7.32534,5.23072 7.37089,5.29493 7.5,5.47689 7.5,5.73459 7.5,6.25 7.5,6.76541 7.5,7.02311 7.37089,7.20507 7.32534,7.26928 7.26928,7.32534 7.20507,7.37089 7.02311,7.5 6.76541,7.5 6.25,7.5 5.73459,7.5 5.47689,7.5 5.29493,7.37089 5.23072,7.32534 5.17466,7.26928 5.12911,7.20507 5,7.02311 5,6.76541 5,6.25 Z"
       fill="#1c274c"
       id="path7" /><path
       d="M 5,17.75 C 5,17.2346 5,16.9769 5.12911,16.7949 5.17466,16.7307 5.23072,16.6747 5.29493,16.6291 5.47689,16.5 5.73459,16.5 6.25,16.5 c 0.51541,0 0.77311,0 0.95507,0.1291 0.06421,0.0456 0.12027,0.1016 0.16582,0.1658 C 7.5,16.9769 7.5,17.2346 7.5,17.75 c 0,0.5154 0,0.7731 -0.12911,0.9551 C 7.32534,18.7693 7.26928,18.8253 7.20507,18.8709 7.02311,19 6.76541,19 6.25,19 5.73459,19 5.47689,19 5.29493,18.8709 5.23072,18.8253 5.17466,18.7693 5.12911,18.7051 5,18.5231 5,18.2654 5,17.75 Z"
       fill="#1c274c"
       id="path8" /><path
       d="m 16,17.75 c 0,-0.7022 0,-1.0533 0.1685,-1.3056 0.073,-0.1092 0.1667,-0.2029 0.2759,-0.2759 C 16.6967,16 17.0478,16 17.75,16 c 0.7022,0 1.0533,0 1.3056,0.1685 0.1092,0.073 0.2029,0.1667 0.2759,0.2759 C 19.5,16.6967 19.5,17.0478 19.5,17.75 c 0,0.7022 0,1.0533 -0.1685,1.3056 -0.073,0.1092 -0.1667,0.2029 -0.2759,0.2759 C 18.8033,19.5 18.4522,19.5 17.75,19.5 c -0.7022,0 -1.0533,0 -1.3056,-0.1685 -0.1092,-0.073 -0.2029,-0.1667 -0.2759,-0.2759 C 16,18.8033 16,18.4522 16,17.75 Z"
       fill="#1c274c"
       id="path9" /></g></svg>
